<svg width="200" height="56" viewBox="0 0 200 56" fill="none" xmlns="http://www.w3.org/2000/svg">
<rect x="5.98651" y="5" width="188" height="46" fill="#56B5E9"/>
<line x1="181.61" y1="54.7725" x2="198.62" y2="36.4018" stroke="white"/>
<line x1="1.67121" y1="54.6122" x2="181.977" y2="54.6122" stroke="white"/>
<line x1="198.126" y1="0.670972" x2="198.806" y2="36.732" stroke="white"/>
<line x1="18.4121" y1="0.345319" x2="1.36621" y2="18.6827" stroke="white"/>
<line x1="198.306" y1="0.5" x2="18.0459" y2="0.504904" stroke="white"/>
<line x1="1.78897" y1="55.0946" x2="1.18047" y2="18.3519" stroke="white"/>
<path d="M65.5547 33V21.4688H70.5547C71.6693 21.4688 72.5339 21.6484 73.1484 22.0078C73.763 22.362 74.1927 22.8438 74.4375 23.4531C74.6823 24.0573 74.8047 24.737 74.8047 25.4922V29.0312C74.8047 29.7969 74.6745 30.4792 74.4141 31.0781C74.1589 31.6771 73.724 32.1484 73.1094 32.4922C72.4948 32.8307 71.6458 33 70.5625 33H65.5547ZM67.875 31.1953H70.3594C71.1771 31.1953 71.7344 31.0443 72.0312 30.7422C72.3333 30.4401 72.4844 29.9688 72.4844 29.3281V25.1875C72.4844 24.5625 72.3307 24.0885 72.0234 23.7656C71.7214 23.4375 71.1667 23.2734 70.3594 23.2734H67.875V31.1953ZM77.5391 21.4688H85.0938V23.2188H79.8516V26.2812H84.5V27.9531H79.8516V31.25H85.1797V33H77.5391V21.4688ZM89.6719 33V23.2344H86.4609V21.4688H95.1953V23.2344H91.9844V33H89.6719ZM95.5234 33L99.3203 21.4688H102.398L106.242 33H103.781L103.141 30.8047H98.6094L97.9453 33H95.5234ZM99.1562 29.0078H102.609L100.914 23.2031L99.1562 29.0078ZM108.023 31.2656H110.125V23.1953H108.023V21.4688H114.523V23.1953H112.438V31.2656H114.523V33H108.023V31.2656ZM117.242 21.4688H119.562V31.1875H124.383V33H117.242V21.4688ZM130.289 33.2031C129.503 33.2031 128.711 33.1094 127.914 32.9219C127.117 32.7344 126.43 32.4792 125.852 32.1562L126.648 30.4609C127.091 30.6953 127.62 30.9089 128.234 31.1016C128.854 31.2891 129.521 31.3828 130.234 31.3828C130.708 31.3828 131.065 31.3151 131.305 31.1797C131.549 31.0443 131.714 30.8568 131.797 30.6172C131.885 30.3724 131.93 30.0938 131.93 29.7812C131.93 29.5677 131.893 29.3724 131.82 29.1953C131.747 29.013 131.596 28.8464 131.367 28.6953C131.143 28.5391 130.799 28.3932 130.336 28.2578L128.367 27.6797C127.742 27.4922 127.255 27.2422 126.906 26.9297C126.562 26.612 126.32 26.2422 126.18 25.8203C126.044 25.3984 125.977 24.9427 125.977 24.4531C125.977 23.7344 126.151 23.1406 126.5 22.6719C126.854 22.2031 127.333 21.8542 127.938 21.625C128.547 21.3906 129.229 21.2734 129.984 21.2734C130.745 21.2734 131.445 21.3464 132.086 21.4922C132.727 21.638 133.312 21.8646 133.844 22.1719L133.188 23.8047C132.76 23.6016 132.294 23.4323 131.789 23.2969C131.284 23.1615 130.75 23.0938 130.188 23.0938C129.599 23.0938 129.13 23.1849 128.781 23.3672C128.432 23.5443 128.258 23.8802 128.258 24.375C128.258 24.7708 128.359 25.0755 128.562 25.2891C128.771 25.5026 129.167 25.6979 129.75 25.875L131.711 26.4609C132.487 26.6953 133.07 27.0677 133.461 27.5781C133.852 28.0885 134.047 28.7969 134.047 29.7031C134.047 30.3542 133.917 30.9453 133.656 31.4766C133.396 32.0026 132.99 32.4219 132.438 32.7344C131.885 33.0469 131.169 33.2031 130.289 33.2031Z" fill="#1E1E1E"/>
</svg>
