<svg width="56" height="56" viewBox="0 0 56 56" fill="none" xmlns="http://www.w3.org/2000/svg">
<mask id="mask0_26_41" style="mask-type:alpha" maskUnits="userSpaceOnUse" x="0" y="0" width="56" height="56">
<path d="M37.8692 31.3776V34.4402C42.6691 29.6403 45.8709 34.4402 45.8709 34.4402C62.5369 22.7077 50.4035 1.11367 50.4035 1.11367C50.4035 1.11367 50.0026 10.7135 42.0065 16.577V25.7759C41.8728 28.4431 39.8682 30.1749 37.8692 31.3776Z" fill="#D0A85C"/>
<path d="M9.99961 34.5739C9.99961 34.5739 12.2659 30.9767 16.0023 33.1094L11.7369 26.8394L15.4677 17.9301C5.8679 12.061 5.4447 1.26402 5.4447 1.26402C5.4447 1.26402 -6.66645 22.8302 9.99961 34.5739Z" fill="#D0A85C"/>
<path d="M15.0668 46.7128L18.135 36.3112L18.0013 36.0439L10.8014 43.3774C9.0666 45.1362 6.73687 46.1829 4.26977 46.3119H1.76402L1.20718 47.6428L7.8892 54.0464L15.0668 46.7128Z" fill="#D0A85C"/>
<path d="M51.4726 46.7128C50.2405 46.6949 49.0251 46.4254 47.9009 45.9207C46.7768 45.4161 45.7676 44.6871 44.9354 43.7783L38.4037 37.2411L40.5364 47.1082L47.8699 54.5698L54.5519 48.1718L53.9951 46.8354L51.4726 46.7128Z" fill="#D0A85C"/>
<path d="M31.2039 23.7768C31.2039 23.9105 31.0702 24.0441 31.0702 24.1722H31.4711C34.6729 24.4395 35.7365 25.6422 36.5383 28.4431C37.0377 28.1624 37.4874 27.8012 37.8692 27.374C38.426 26.8172 38.8046 26.4441 38.8046 25.9095V15.6415C38.7976 15.3822 38.7003 15.1336 38.5295 14.9384C38.3587 14.7432 38.1252 14.6138 37.8692 14.5724L20.4013 11.3761H20.1395C19.7866 11.3761 19.4481 11.5163 19.1985 11.7659C18.9489 12.0155 18.8087 12.354 18.8087 12.707V16.4433L32.6739 18.3087L31.2039 23.7768Z" fill="#D0A85C"/>
<path d="M33.6038 30.0691C32.9356 27.1345 32.802 27.5355 30.402 27.4018L22.8012 26.7281V24.5731H25.8694C26.3894 24.5851 26.8978 24.4187 27.3101 24.1016C27.7224 23.7845 28.0137 23.3358 28.1357 22.8302L28.6925 20.9648L18.1349 19.4892L15.3508 26.2937L21.888 35.7599L18.8031 46.0447L27.8684 54.5698L37.0729 46.1783C37.0729 46.1783 33.6038 30.3085 33.6038 30.0301" fill="#D0A85C"/>
<path d="M27.8684 1.24174L25.2012 6.97157L27.8684 9.10425L30.5356 6.97157L27.8684 1.24174Z" fill="#D0A85C"/>
<path d="M34.6729 5.23981L35.4692 8.58082H38.8102L40.4083 2.45564L34.6729 5.23981Z" fill="#D0A85C"/>
<path d="M16.9378 8.57525H20.2788L20.4124 8.17433L21.0806 5.23981L15.3452 2.45564L16.9378 8.57525Z" fill="#D0A85C"/>
</mask>
<g mask="url(#mask0_26_41)">
<rect x="-1.45325" width="55.6835" height="55.6835" fill="black"/>
</g>
</svg>
